<mxfile host="app.diagrams.net">
  <diagram name="Thermostat Flowchart">
    <mxGraphModel dx="1200" dy="780" grid="1" gridSize="10" guides="1" tooltips="1" connect="1" arrows="1" fold="1" page="1" pageScale="1" pageWidth="827" pageHeight="1169" math="0" shadow="0">
      <root>
        <mxCell id="0" />
        <mxCell id="1" parent="0" />

        <!-- Блоки setup() -->
        <mxCell id="2" value="Start" style="ellipse;whiteSpace=wrap;html=1;" vertex="1" parent="1">
          <mxGeometry x="50" y="50" width="80" height="80" as="geometry" />
        </mxCell>
        <mxCell id="3" value="Настройка пинов" style="rounded=1;whiteSpace=wrap;html=1;" vertex="1" parent="1">
          <mxGeometry x="50" y="150" width="180" height="50" as="geometry" />
        </mxCell>
        <mxCell id="4" value="Инициализация Serial 9600" style="rounded=1;whiteSpace=wrap;html=1;" vertex="1" parent="1">
          <mxGeometry x="50" y="230" width="180" height="50" as="geometry" />
        </mxCell>
        <mxCell id="5" value="Инициализация LCD" style="rounded=1;whiteSpace=wrap;html=1;" vertex="1" parent="1">
          <mxGeometry x="50" y="310" width="180" height="50" as="geometry" />
        </mxCell>
        <mxCell id="6" value="End" style="ellipse;whiteSpace=wrap;html=1;" vertex="1" parent="1">
          <mxGeometry x="50" y="410" width="80" height="80" as="geometry" />
        </mxCell>

        <!-- Связи для setup() -->
        <mxCell id="7" edge="1" source="2" target="3" parent="1">
          <mxGeometry relative="1" as="geometry" />
        </mxCell>
        <mxCell id="8" edge="1" source="3" target="4" parent="1">
          <mxGeometry relative="1" as="geometry" />
        </mxCell>
        <mxCell id="9" edge="1" source="4" target="5" parent="1">
          <mxGeometry relative="1" as="geometry" />
        </mxCell>
        <mxCell id="10" edge="1" source="5" target="6" parent="1">
          <mxGeometry relative="1" as="geometry" />
        </mxCell>

        <!-- Блоки loop() -->
        <mxCell id="11" value="Start" style="ellipse;whiteSpace=wrap;html=1;" vertex="1" parent="1">
          <mxGeometry x="300" y="50" width="80" height="80" as="geometry" />
        </mxCell>
        <mxCell id="12" value="Чтение значений с кнопок" style="rounded=1;whiteSpace=wrap;html=1;" vertex="1" parent="1">
          <mxGeometry x="300" y="150" width="180" height="50" as="geometry" />
        </mxCell>
        <mxCell id="13" value="Чтение значений датчиков" style="rounded=1;whiteSpace=wrap;html=1;" vertex="1" parent="1">
          <mxGeometry x="300" y="230" width="180" height="50" as="geometry" />
        </mxCell>
        <mxCell id="14" value="Валидация показаний" style="rhombus;whiteSpace=wrap;html=1;" vertex="1" parent="1">
          <mxGeometry x="300" y="310" width="120" height="80" as="geometry" />
        </mxCell>
        <mxCell id="15" value="End" style="ellipse;whiteSpace=wrap;html=1;" vertex="1" parent="1">
          <mxGeometry x="300" y="410" width="80" height="80" as="geometry" />
        </mxCell>

        <!-- Связи для loop() -->
        <mxCell id="16" edge="1" source="11" target="12" parent="1">
          <mxGeometry relative="1" as="geometry" />
        </mxCell>
        <mxCell id="17" edge="1" source="12" target="13" parent="1">
          <mxGeometry relative="1" as="geometry" />
        </mxCell>
        <mxCell id="18" edge="1" source="13" target="14" parent="1">
          <mxGeometry relative="1" as="geometry" />
        </mxCell>
        <mxCell id="19" edge="1" source="14" target="15" parent="1">
          <mxGeometry relative="1" as="geometry" />
        </mxCell>

        <!-- Блоки updateScreen() -->
        <mxCell id="20" value="Обновление LCD" style="rounded=1;whiteSpace=wrap;html=1;" vertex="1" parent="1">
          <mxGeometry x="600" y="50" width="180" height="50" as="geometry" />
        </mxCell>

        <!-- Связи для updateScreen() -->
        <mxCell id="21" edge="1" source="20" parent="1">
          <mxGeometry relative="1" as="geometry" />
        </mxCell>

        <!-- Блоки validation() -->
        <mxCell id="22" value="Валидация датчиков" style="rounded=1;whiteSpace=wrap;html=1;" vertex="1" parent="1">
          <mxGeometry x="900" y="50" width="180" height="50" as="geometry" />
        </mxCell>
        <mxCell id="23" value="Ошибка датчика 1?" style="rhombus;whiteSpace=wrap;html=1;" vertex="1" parent="1">
          <mxGeometry x="900" y="150" width="120" height="80" as="geometry" />
        </mxCell>
        <mxCell id="24" value="Ошибка датчика 2?" style="rhombus;whiteSpace=wrap;html=1;" vertex="1" parent="1">
          <mxGeometry x="900" y="250" width="120" height="80" as="geometry" />
        </mxCell>
        <mxCell id="25" value="End" style="ellipse;whiteSpace=wrap;html=1;" vertex="1" parent="1">
          <mxGeometry x="900" y="350" width="80" height="80" as="geometry" />
        </mxCell>

        <!-- Связи для validation() -->
        <mxCell id="26" edge="1" source="22" target="23" parent="1">
          <mxGeometry relative="1" as="geometry" />
        </mxCell>
        <mxCell id="27" edge="1" source="23" target="24" parent="1">
          <mxGeometry relative="1" as="geometry" />
        </mxCell>
        <mxCell id="28" edge="1" source="24" target="25" parent="1">
          <mxGeometry relative="1" as="geometry" />
        </mxCell>

      </root>
    </mxGraphModel>
  </diagram>
</mxfile>
